<svg width="142" height="43" viewBox="0 0 142 43" fill="none" xmlns="http://www.w3.org/2000/svg">
<path fill-rule="evenodd" clip-rule="evenodd" d="M134 1H8C4.13401 1 1 4.13401 1 8V35C1 38.866 4.13401 42 8 42H134C137.866 42 141 38.866 141 35V8C141 4.13401 137.866 1 134 1ZM8 0C3.58172 0 0 3.58172 0 8V35C0 39.4183 3.58172 43 8 43H134C138.418 43 142 39.4183 142 35V8C142 3.58172 138.418 0 134 0H8Z" fill="#898989"/>
<path d="M22.2717 25.3597H27.6117V27.9997H19.5117V13.9997H22.2717V25.3597Z" fill="#898989"/>
<path d="M33.7997 13.9997C35.1464 13.9997 36.2797 14.4531 37.1997 15.3597C38.1197 16.2664 38.5797 17.3797 38.5797 18.6997C38.5797 20.0197 38.1197 21.1331 37.1997 22.0397C36.2797 22.9464 35.1464 23.3997 33.7997 23.3997H31.3397V27.9997H28.5797V13.9997H33.7997ZM33.7997 20.8197C34.3864 20.8197 34.873 20.6197 35.2597 20.2197C35.6464 19.8064 35.8397 19.2997 35.8397 18.6997C35.8397 18.0864 35.6464 17.5797 35.2597 17.1797C34.873 16.7797 34.3864 16.5797 33.7997 16.5797H31.3397V20.8197H33.7997Z" fill="#898989"/>
<path d="M39.7766 23.1997V20.7197H47.2766V23.1997H39.7766Z" fill="#898989"/>
<path d="M55.9142 28.2797C53.8076 28.2797 52.0676 27.5797 50.6942 26.1797C49.3209 24.7797 48.6342 23.0531 48.6342 20.9997C48.6342 18.9331 49.3209 17.2064 50.6942 15.8197C52.0676 14.4197 53.8076 13.7197 55.9142 13.7197C57.1809 13.7197 58.3476 14.0197 59.4142 14.6197C60.4942 15.2064 61.3342 16.0064 61.9342 17.0197L59.5542 18.3997C59.2076 17.7731 58.7142 17.2864 58.0742 16.9397C57.4342 16.5797 56.7142 16.3997 55.9142 16.3997C54.5542 16.3997 53.4542 16.8264 52.6142 17.6797C51.7876 18.5331 51.3742 19.6397 51.3742 20.9997C51.3742 22.3464 51.7876 23.4464 52.6142 24.2997C53.4542 25.1531 54.5542 25.5797 55.9142 25.5797C56.7142 25.5797 57.4342 25.4064 58.0742 25.0597C58.7276 24.6997 59.2209 24.2131 59.5542 23.5997L61.9342 24.9797C61.3342 25.9931 60.5009 26.7997 59.4342 27.3997C58.3676 27.9864 57.1942 28.2797 55.9142 28.2797Z" fill="#898989"/>
<path d="M70.9897 13.9997H73.7297V27.9997H70.9897V22.1997H65.7897V27.9997H63.0297V13.9997H65.7897V19.5597H70.9897V13.9997Z" fill="#898989"/>
<path d="M84.7305 27.9997L83.8905 25.4797H78.3105L77.4705 27.9997H74.4905L79.3905 13.9997H82.8105L87.7305 27.9997H84.7305ZM79.1905 22.8997H83.0305L81.1105 17.1797L79.1905 22.8997Z" fill="#898989"/>
<path d="M96.7342 13.9997V16.6397H92.9542V27.9997H90.1942V16.6397H86.4342V13.9997H96.7342Z" fill="#898989"/>
<path d="M98.2628 27.7597C97.9295 28.0931 97.5295 28.2597 97.0628 28.2597C96.5961 28.2597 96.1961 28.0931 95.8628 27.7597C95.5295 27.4264 95.3628 27.0264 95.3628 26.5597C95.3628 26.0931 95.5295 25.6931 95.8628 25.3597C96.1961 25.0264 96.5961 24.8597 97.0628 24.8597C97.5295 24.8597 97.9295 25.0264 98.2628 25.3597C98.5961 25.6931 98.7628 26.0931 98.7628 26.5597C98.7628 27.0264 98.5961 27.4264 98.2628 27.7597Z" fill="#898989"/>
<path d="M108.114 27.9997L105.294 23.1397H103.194V27.9997H100.434V13.9997H106.034C107.328 13.9997 108.428 14.4531 109.334 15.3597C110.241 16.2664 110.694 17.3597 110.694 18.6397C110.694 19.5064 110.448 20.3131 109.954 21.0597C109.461 21.7931 108.808 22.3464 107.994 22.7197L111.094 27.9997H108.114ZM103.194 16.5797V20.7197H106.034C106.554 20.7197 107.001 20.5197 107.374 20.1197C107.748 19.7064 107.934 19.2131 107.934 18.6397C107.934 18.0664 107.748 17.5797 107.374 17.1797C107.001 16.7797 106.554 16.5797 106.034 16.5797H103.194Z" fill="#898989"/>
<path d="M117.242 28.2797C115.682 28.2797 114.402 27.8397 113.402 26.9597C112.402 26.0797 111.902 24.8997 111.902 23.4197V13.9997H114.642V23.1997C114.642 23.9331 114.849 24.5131 115.262 24.9397C115.689 25.3664 116.349 25.5797 117.242 25.5797C118.135 25.5797 118.789 25.3664 119.202 24.9397C119.629 24.5131 119.842 23.9331 119.842 23.1997V13.9997H122.602V23.4197C122.602 24.8997 122.102 26.0797 121.102 26.9597C120.102 27.8397 118.815 28.2797 117.242 28.2797Z" fill="#898989"/>
</svg>
